nColumns=28
nRows=40
DataType=double
version=3
OpenSimVersion=4.1
endheader
time	ground_force_1_vx	ground_force_1_vy	ground_force_1_vz	ground_force_1_px	ground_force_1_py	ground_force_1_pz	ground_force_1_mx	ground_force_1_my	ground_force_1_mz	ground_force_2_vx	ground_force_2_vy	ground_force_2_vz	ground_force_2_px	ground_force_2_py	ground_force_2_pz	ground_force_2_mx	ground_force_2_my	ground_force_2_mz	ground_force_3_vx	ground_force_3_vy	ground_force_3_vz	ground_force_3_px	ground_force_3_py	ground_force_3_pz	ground_force_3_mx	ground_force_3_my	ground_force_3_mz
3.36	0.878695	317.503	-39.53	-0.263361	0.006	-0.4125	0	-0.854236	0	-4.72026	294.593	39.2371	-0.243715	0.006	-0.784719	0	1.16591	0	0	0	0	0	0	0	0	0	0
3.37	-0.909829	318.983	-40.0014	-0.261243	0.006	-0.411816	0	-0.892724	0	-7.0002	296.797	40.5934	-0.242113	0.006	-0.785318	0	1.24033	0	0	0	0	0	0	0	0	0	0
3.38	-3.68754	316.434	-40.4907	-0.259617	0.006	-0.411356	0	-0.945457	0	-8.75336	297.52	41.7275	-0.240586	0.006	-0.785906	0	1.3122	0	0	0	0	0	0	0	0	0	0
3.39	-4.66097	314.189	-41.0551	-0.258764	0.006	-0.411028	0	-1.00742	0	-9.43231	296.97	42.3295	-0.239749	0.006	-0.78629	0	1.38785	0	0	0	0	0	0	0	0	0	0
3.4	-4.21369	313.889	-41.9211	-0.258351	0.006	-0.410398	0	-1.0715	0	-8.37835	296.108	42.6437	-0.239955	0.006	-0.78627	0	1.47929	0	0	0	0	0	0	0	0	0	0
3.41	-3.62126	312.089	-42.2858	-0.258136	0.006	-0.409951	0	-1.13059	0	-6.90995	297.521	43.1128	-0.240809	0.006	-0.786393	0	1.58241	0	0	0	0	0	0	0	0	0	0
3.42	-3.51741	308.86	-42.0977	-0.258031	0.006	-0.409795	0	-1.17816	0	-6.21846	301.346	43.4095	-0.242016	0.006	-0.786631	0	1.66963	0	0	0	0	0	0	0	0	0	0
3.43	-3.63808	306.421	-41.5984	-0.258338	0.006	-0.409727	0	-1.23484	0	-6.05472	306.001	43.6183	-0.243352	0.006	-0.786667	0	1.73827	0	0	0	0	0	0	0	0	0	0
3.44	-2.87386	306.857	-41.481	-0.259495	0.006	-0.40977	0	-1.29946	0	-5.98828	309.409	43.7229	-0.245042	0.006	-0.786739	0	1.81495	0	0	0	0	0	0	0	0	0	0
3.45	-0.793149	308.87	-42.2357	-0.261641	0.006	-0.409868	0	-1.34881	0	-5.06067	310.253	43.7428	-0.247363	0.006	-0.786756	0	1.89113	0	0	0	0	0	0	0	0	0	0
3.46	2.44549	311.171	-43.2539	-0.264068	0.006	-0.410016	0	-1.38607	0	-3.20814	310.121	43.9044	-0.249884	0.006	-0.786721	0	1.97524	0	0	0	0	0	0	0	0	0	0
3.47	5.59351	313.022	-43.5951	-0.266091	0.006	-0.410276	0	-1.39379	0	-1.72827	309.98	43.7878	-0.252227	0.006	-0.786657	0	2.07948	0	0	0	0	0	0	0	0	0	0
3.48	7.09407	313.364	-42.9141	-0.267775	0.006	-0.410769	0	-1.32653	0	-1.20364	308.655	43.0405	-0.254511	0.006	-0.786315	0	2.13109	0	0	0	0	0	0	0	0	0	0
3.49	7.3566	312.541	-41.907	-0.269344	0.006	-0.411334	0	-1.28943	0	-0.734864	307.464	42.3526	-0.256461	0.006	-0.785928	0	2.11912	0	0	0	0	0	0	0	0	0	0
3.5	8.08205	311.516	-40.8013	-0.27086	0.006	-0.411874	0	-1.29214	0	0.201808	308.117	42.037	-0.257891	0.006	-0.785685	0	2.09061	0	0	0	0	0	0	0	0	0	0
3.51	9.04111	310.976	-39.489	-0.272082	0.006	-0.412604	0	-1.29387	0	1.32096	310.369	41.9578	-0.258963	0.006	-0.785497	0	2.07559	0	0	0	0	0	0	0	0	0	0
3.52	9.48835	310.886	-38.0493	-0.272868	0.006	-0.413424	0	-1.26818	0	2.24097	312.53	41.9941	-0.259964	0.006	-0.78532	0	2.06576	0	0	0	0	0	0	0	0	0	0
3.53	9.11601	310.718	-36.9322	-0.272944	0.006	-0.413902	0	-1.22983	0	3.1307	313.452	41.8867	-0.260928	0.006	-0.785028	0	2.01925	0	0	0	0	0	0	0	0	0	0
3.54	7.62285	310.183	-36.1384	-0.272186	0.006	-0.414132	0	-1.18944	0	3.6605	313.715	41.3735	-0.261572	0.006	-0.784587	0	1.97086	0	0	0	0	0	0	0	0	0	0
3.55	5.072	308.864	-35.248	-0.270946	0.006	-0.414349	0	-1.13346	0	3.12831	313.026	40.6999	-0.261867	0.006	-0.784151	0	1.92048	0	0	0	0	0	0	0	0	0	0
3.56	3.26224	307.346	-34.6041	-0.270009	0.006	-0.414488	0	-1.06081	0	1.7974	312.57	40.28	-0.261755	0.006	-0.78395	0	1.84007	0	0	0	0	0	0	0	0	0	0
3.57	3.33734	306.541	-34.627	-0.269816	0.006	-0.41458	0	-1.01902	0	0.413203	313.585	40.0605	-0.261375	0.006	-0.784043	0	1.76123	0	0	0	0	0	0	0	0	0	0
3.58	3.57128	306.222	-35.0055	-0.269624	0.006	-0.414463	0	-0.979019	0	-0.463953	316.449	40.0562	-0.260327	0.006	-0.784179	0	1.72627	0	0	0	0	0	0	0	0	0	0
3.59	3.05629	306.031	-35.1011	-0.269019	0.006	-0.414112	0	-0.910508	0	-1.50362	320.549	40.3947	-0.258392	0.006	-0.784341	0	1.73425	0	0	0	0	0	0	0	0	0	0
3.6	2.67857	306.255	-34.9332	-0.268367	0.006	-0.413747	0	-0.869779	0	-3.47677	323.949	40.6606	-0.255896	0.006	-0.784681	0	1.74118	0	0	0	0	0	0	0	0	0	0
3.61	2.62778	306.92	-34.6064	-0.267709	0.006	-0.413611	0	-0.86111	0	-5.90363	324.837	40.7247	-0.253805	0.006	-0.785018	0	1.74184	0	0	0	0	0	0	0	0	0	0
3.62	2.59642	307.31	-34.2076	-0.267212	0.006	-0.413627	0	-0.862392	0	-7.3383	323.101	40.8592	-0.252575	0.006	-0.785184	0	1.72209	0	0	0	0	0	0	0	0	0	0
3.63	2.75807	308.354	-34.3128	-0.267282	0.006	-0.413573	0	-0.878943	0	-6.58025	320.347	41.1951	-0.252659	0.006	-0.785211	0	1.76005	0	0	0	0	0	0	0	0	0	0
3.64	3.24001	311.451	-35.0109	-0.267604	0.006	-0.413397	0	-0.9262	0	-4.91808	318.281	41.7413	-0.253437	0.006	-0.78518	0	1.81963	0	0	0	0	0	0	0	0	0	0
3.65	4.07845	315.527	-35.393	-0.268038	0.006	-0.413145	0	-1.00252	0	-3.97225	317.625	42.1699	-0.254197	0.006	-0.785224	0	1.85992	0	0	0	0	0	0	0	0	0	0
3.66	4.82409	319.072	-35.45	-0.26841	0.006	-0.412895	0	-1.07079	0	-3.45411	317.948	42.3144	-0.254785	0.006	-0.785279	0	1.94392	0	0	0	0	0	0	0	0	0	0
3.67	4.86188	320.433	-35.7344	-0.268574	0.006	-0.412773	0	-1.13093	0	-2.88393	318.768	42.2406	-0.255041	0.006	-0.785256	0	2.0416	0	0	0	0	0	0	0	0	0	0
3.68	4.29555	320.351	-36.1956	-0.268517	0.006	-0.412717	0	-1.16596	0	-2.28387	319.763	42.0243	-0.255461	0.006	-0.785172	0	2.10079	0	0	0	0	0	0	0	0	0	0
3.69	3.3268	320.385	-36.6453	-0.267966	0.006	-0.412512	0	-1.20237	0	-1.4106	320.653	42.0211	-0.256094	0.006	-0.784881	0	2.16714	0	0	0	0	0	0	0	0	0	0
3.7	2.34008	320.82	-36.8829	-0.267245	0.006	-0.41223	0	-1.28317	0	-0.428808	321.648	42.2616	-0.256629	0.006	-0.784669	0	2.26341	0	0	0	0	0	0	0	0	0	0
3.71	1.67653	321.579	-37.0673	-0.266744	0.006	-0.412064	0	-1.37598	0	-0.0194842	322.519	42.1558	-0.256908	0.006	-0.784456	0	2.33362	0	0	0	0	0	0	0	0	0	0
3.72	1.11923	322.796	-37.4492	-0.26637	0.006	-0.411848	0	-1.42969	0	-0.172165	323.622	41.6777	-0.256705	0.006	-0.784294	0	2.35737	0	0	0	0	0	0	0	0	0	0
3.73	0.521858	324.703	-37.9935	-0.26612	0.006	-0.411603	0	-1.47064	0	-0.751089	324.391	40.9701	-0.25606	0.006	-0.784089	0	2.37741	0	0	0	0	0	0	0	0	0	0
3.74	0.234514	327.481	-38.8043	-0.266141	0.006	-0.411322	0	-1.53536	0	-1.36437	324.516	40.1964	-0.255487	0.006	-0.783984	0	2.40928	0	0	0	0	0	0	0	0	0	0
3.75	0.484876	330.881	-39.994	-0.266364	0.006	-0.411103	0	-1.56645	0	-1.27483	324.987	39.5567	-0.255238	0.006	-0.783792	0	2.42532	0	0	0	0	0	0	0	0	0	0
